<svg width="2560" height="2560"><circle r="4" cx="165" cy="935" style="fill: rgb(255, 123, 157);"></circle><circle r="4" cx="165" cy="955" style="fill: rgb(255, 123, 157);"></circle><circle r="4" cx="165" cy="2325" style="fill: rgb(255, 123, 157);"></circle><circle r="4" cx="175" cy="885" style="fill: rgb(255, 123, 157);"></circle><circle r="4" cx="175" cy="905" style="fill: rgb(255, 123, 157);"></circle><circle r="4" cx="175" cy="975" style="fill: rgb(255, 123, 157);"></circle><circle r="4" cx="175" cy="1025" style="fill: rgb(255, 123, 157);"></circle><circle r="4" cx="185" cy="995" style="fill: rgb(255, 123, 157);"></circle><circle r="4" cx="185" cy="2285" style="fill: rgb(255, 123, 157);"></circle><circle r="4" cx="195" cy="895" style="fill: rgb(255, 123, 157);"></circle><circle r="4" cx="195" cy="915" style="fill: rgb(255, 123, 157);"></circle><circle r="4" cx="195" cy="955" style="fill: rgb(255, 123, 157);"></circle><circle r="4" cx="195" cy="975" style="fill: rgb(255, 123, 157);"></circle><circle r="4" cx="205" cy="985" style="fill: rgb(255, 123, 157);"></circle><circle r="4" cx="205" cy="1025" style="fill: rgb(255, 123, 157);"></circle><circle r="4" cx="205" cy="2285" style="fill: rgb(255, 123, 157);"></circle><circle r="4" cx="215" cy="885" style="fill: rgb(255, 123, 157);"></circle><circle r="4" cx="215" cy="905" style="fill: rgb(255, 123, 157);"></circle><circle r="4" cx="215" cy="915" style="fill: rgb(255, 123, 157);"></circle><circle r="4" cx="215" cy="965" style="fill: rgb(255, 123, 157);"></circle><circle r="4" cx="215" cy="1025" style="fill: rgb(255, 123, 157);"></circle><circle r="4" cx="215" cy="1035" style="fill: rgb(255, 123, 157);"></circle><circle r="4" cx="215" cy="2275" style="fill: rgb(255, 123, 157);"></circle><circle r="4" cx="225" cy="915" style="fill: rgb(255, 123, 157);"></circle><circle r="4" cx="225" cy="2325" style="fill: rgb(255, 123, 157);"></circle><circle r="4" cx="225" cy="2365" style="fill: rgb(255, 123, 157);"></circle><circle r="4" cx="235" cy="935" style="fill: rgb(255, 123, 157);"></circle><circle r="4" cx="235" cy="945" style="fill: rgb(255, 123, 157);"></circle><circle r="4" cx="235" cy="965" style="fill: rgb(255, 123, 157);"></circle><circle r="4" cx="235" cy="2225" style="fill: rgb(255, 123, 157);"></circle><circle r="4" cx="235" cy="2245" style="fill: rgb(255, 123, 157);"></circle><circle r="4" cx="235" cy="2355" style="fill: rgb(255, 123, 157);"></circle><circle r="4" cx="245" cy="885" style="fill: rgb(255, 123, 157);"></circle><circle r="4" cx="245" cy="985" style="fill: rgb(255, 123, 157);"></circle><circle r="4" cx="245" cy="2185" style="fill: rgb(255, 123, 157);"></circle><circle r="4" cx="245" cy="2235" style="fill: rgb(255, 123, 157);"></circle><circle r="4" cx="245" cy="2285" style="fill: rgb(255, 123, 157);"></circle><circle r="4" cx="255" cy="905" style="fill: rgb(255, 123, 157);"></circle><circle r="4" cx="255" cy="935" style="fill: rgb(255, 123, 157);"></circle><circle r="4" cx="255" cy="965" style="fill: rgb(255, 123, 157);"></circle><circle r="4" cx="255" cy="1015" style="fill: rgb(255, 123, 157);"></circle><circle r="4" cx="255" cy="1025" style="fill: rgb(255, 123, 157);"></circle><circle r="4" cx="255" cy="2155" style="fill: rgb(255, 123, 157);"></circle><circle r="4" cx="255" cy="2255" style="fill: rgb(255, 123, 157);"></circle><circle r="4" cx="255" cy="2265" style="fill: rgb(255, 123, 157);"></circle><circle r="4" cx="265" cy="905" style="fill: rgb(255, 123, 157);"></circle><circle r="4" cx="265" cy="945" style="fill: rgb(255, 123, 157);"></circle><circle r="4" cx="265" cy="1035" style="fill: rgb(255, 123, 157);"></circle><circle r="4" cx="265" cy="2185" style="fill: rgb(255, 123, 157);"></circle><circle r="4" cx="265" cy="2215" style="fill: rgb(255, 123, 157);"></circle><circle r="4" cx="275" cy="965" style="fill: rgb(255, 123, 157);"></circle><circle r="4" cx="275" cy="2135" style="fill: rgb(255, 123, 157);"></circle><circle r="4" cx="275" cy="2145" style="fill: rgb(255, 123, 157);"></circle><circle r="4" cx="285" cy="865" style="fill: rgb(255, 123, 157);"></circle><circle r="4" cx="285" cy="895" style="fill: rgb(255, 123, 157);"></circle><circle r="4" cx="285" cy="915" style="fill: rgb(255, 123, 157);"></circle><circle r="4" cx="295" cy="885" style="fill: rgb(255, 123, 157);"></circle><circle r="4" cx="295" cy="895" style="fill: rgb(255, 123, 157);"></circle><circle r="4" cx="295" cy="995" style="fill: rgb(255, 123, 157);"></circle><circle r="4" cx="295" cy="1005" style="fill: rgb(255, 123, 157);"></circle><circle r="4" cx="295" cy="2095" style="fill: rgb(255, 123, 157);"></circle><circle r="4" cx="295" cy="2105" style="fill: rgb(255, 123, 157);"></circle><circle r="4" cx="295" cy="2115" style="fill: rgb(255, 123, 157);"></circle><circle r="4" cx="305" cy="935" style="fill: rgb(255, 123, 157);"></circle><circle r="4" cx="305" cy="975" style="fill: rgb(255, 123, 157);"></circle><circle r="4" cx="305" cy="1015" style="fill: rgb(255, 123, 157);"></circle><circle r="4" cx="315" cy="865" style="fill: rgb(255, 123, 157);"></circle><circle r="4" cx="535" cy="1035" style="fill: rgb(86, 195, 0);"></circle><circle r="4" cx="545" cy="1145" style="fill: rgb(255, 123, 157);"></circle><circle r="4" cx="555" cy="1055" style="fill: rgb(255, 123, 157);"></circle><circle r="4" cx="555" cy="1095" style="fill: rgb(255, 123, 157);"></circle><circle r="4" cx="565" cy="1075" style="fill: rgb(255, 123, 157);"></circle><circle r="4" cx="565" cy="1105" style="fill: rgb(255, 123, 157);"></circle><circle r="4" cx="565" cy="1115" style="fill: rgb(255, 123, 157);"></circle><circle r="4" cx="565" cy="1145" style="fill: rgb(255, 123, 157);"></circle><circle r="4" cx="585" cy="1115" style="fill: rgb(255, 123, 157);"></circle><circle r="4" cx="595" cy="1065" style="fill: rgb(255, 123, 157);"></circle><circle r="4" cx="595" cy="1115" style="fill: rgb(255, 123, 157);"></circle><circle r="4" cx="605" cy="1085" style="fill: rgb(255, 123, 157);"></circle><circle r="4" cx="605" cy="1145" style="fill: rgb(255, 123, 157);"></circle><circle r="4" cx="615" cy="1095" style="fill: rgb(255, 123, 157);"></circle><circle r="4" cx="615" cy="1115" style="fill: rgb(255, 123, 157);"></circle><circle r="4" cx="625" cy="1045" style="fill: rgb(255, 123, 157);"></circle><circle r="4" cx="635" cy="1055" style="fill: rgb(255, 123, 157);"></circle><circle r="4" cx="635" cy="1085" style="fill: rgb(86, 195, 0);"></circle><circle r="4" cx="635" cy="1115" style="fill: rgb(255, 123, 157);"></circle><circle r="4" cx="635" cy="1765" style="fill: rgb(255, 123, 157);"></circle><circle r="4" cx="645" cy="1075" style="fill: rgb(255, 123, 157);"></circle><circle r="4" cx="655" cy="1035" style="fill: rgb(255, 123, 157);"></circle><circle r="4" cx="655" cy="1115" style="fill: rgb(255, 123, 157);"></circle><circle r="4" cx="665" cy="1035" style="fill: rgb(255, 123, 157);"></circle><circle r="4" cx="665" cy="1095" style="fill: rgb(255, 123, 157);"></circle><circle r="4" cx="665" cy="1135" style="fill: rgb(255, 123, 157);"></circle><circle r="4" cx="675" cy="1775" style="fill: rgb(255, 123, 157);"></circle><circle r="4" cx="685" cy="1125" style="fill: rgb(255, 123, 157);"></circle><circle r="4" cx="685" cy="1675" style="fill: rgb(255, 123, 157);"></circle><circle r="4" cx="695" cy="1075" style="fill: rgb(255, 123, 157);"></circle><circle r="4" cx="695" cy="1125" style="fill: rgb(255, 123, 157);"></circle><circle r="4" cx="695" cy="1765" style="fill: rgb(255, 123, 157);"></circle><circle r="4" cx="705" cy="1105" style="fill: rgb(255, 123, 157);"></circle><circle r="4" cx="705" cy="1685" style="fill: rgb(255, 123, 157);"></circle><circle r="4" cx="705" cy="1765" style="fill: rgb(255, 123, 157);"></circle><circle r="4" cx="715" cy="1035" style="fill: rgb(255, 123, 157);"></circle><circle r="4" cx="715" cy="1085" style="fill: rgb(86, 195, 0);"></circle><circle r="4" cx="715" cy="1675" style="fill: rgb(255, 123, 157);"></circle><circle r="4" cx="715" cy="1735" style="fill: rgb(255, 123, 157);"></circle><circle r="4" cx="725" cy="1035" style="fill: rgb(255, 123, 157);"></circle><circle r="4" cx="725" cy="1085" style="fill: rgb(255, 123, 157);"></circle><circle r="4" cx="725" cy="1125" style="fill: rgb(255, 123, 157);"></circle><circle r="4" cx="725" cy="1675" style="fill: rgb(255, 123, 157);"></circle><circle r="4" cx="725" cy="1705" style="fill: rgb(255, 123, 157);"></circle><circle r="4" cx="725" cy="1735" style="fill: rgb(255, 123, 157);"></circle><circle r="4" cx="735" cy="1645" style="fill: rgb(255, 123, 157);"></circle><circle r="4" cx="745" cy="1025" style="fill: rgb(255, 123, 157);"></circle><circle r="4" cx="745" cy="1625" style="fill: rgb(255, 123, 157);"></circle><circle r="4" cx="745" cy="1675" style="fill: rgb(255, 123, 157);"></circle><circle r="4" cx="745" cy="1725" style="fill: rgb(255, 123, 157);"></circle><circle r="4" cx="755" cy="1045" style="fill: rgb(255, 123, 157);"></circle><circle r="4" cx="755" cy="1135" style="fill: rgb(255, 123, 157);"></circle><circle r="4" cx="755" cy="1625" style="fill: rgb(255, 123, 157);"></circle><circle r="4" cx="755" cy="1665" style="fill: rgb(86, 195, 0);"></circle><circle r="4" cx="755" cy="1725" style="fill: rgb(255, 123, 157);"></circle><circle r="4" cx="765" cy="1045" style="fill: rgb(255, 123, 157);"></circle><circle r="4" cx="765" cy="1105" style="fill: rgb(255, 123, 157);"></circle><circle r="4" cx="765" cy="1645" style="fill: rgb(255, 123, 157);"></circle><circle r="4" cx="765" cy="1675" style="fill: rgb(255, 123, 157);"></circle><circle r="4" cx="765" cy="1715" style="fill: rgb(255, 123, 157);"></circle><circle r="4" cx="775" cy="1015" style="fill: rgb(255, 123, 157);"></circle><circle r="4" cx="775" cy="1095" style="fill: rgb(255, 123, 157);"></circle><circle r="4" cx="775" cy="1115" style="fill: rgb(255, 123, 157);"></circle><circle r="4" cx="775" cy="1675" style="fill: rgb(255, 123, 157);"></circle><circle r="4" cx="785" cy="1035" style="fill: rgb(255, 123, 157);"></circle><circle r="4" cx="785" cy="1055" style="fill: rgb(255, 123, 157);"></circle><circle r="4" cx="795" cy="1055" style="fill: rgb(0, 182, 255);"></circle><circle r="4" cx="795" cy="1115" style="fill: rgb(255, 123, 157);"></circle><circle r="4" cx="795" cy="1685" style="fill: rgb(255, 123, 157);"></circle><circle r="4" cx="805" cy="1125" style="fill: rgb(255, 123, 157);"></circle><circle r="4" cx="805" cy="1655" style="fill: rgb(255, 123, 157);"></circle><circle r="4" cx="805" cy="1705" style="fill: rgb(255, 123, 157);"></circle><circle r="4" cx="815" cy="1045" style="fill: rgb(255, 123, 157);"></circle><circle r="4" cx="815" cy="1055" style="fill: rgb(255, 123, 157);"></circle><circle r="4" cx="815" cy="1635" style="fill: rgb(255, 123, 157);"></circle><circle r="4" cx="815" cy="1675" style="fill: rgb(255, 123, 157);"></circle><circle r="4" cx="825" cy="1125" style="fill: rgb(255, 123, 157);"></circle><circle r="4" cx="825" cy="1705" style="fill: rgb(255, 123, 157);"></circle><circle r="4" cx="835" cy="1025" style="fill: rgb(255, 123, 157);"></circle><circle r="4" cx="835" cy="1085" style="fill: rgb(255, 123, 157);"></circle><circle r="4" cx="835" cy="1095" style="fill: rgb(255, 123, 157);"></circle><circle r="4" cx="845" cy="1025" style="fill: rgb(255, 123, 157);"></circle><circle r="4" cx="845" cy="1065" style="fill: rgb(255, 123, 157);"></circle><circle r="4" cx="855" cy="1075" style="fill: rgb(255, 123, 157);"></circle><circle r="4" cx="855" cy="1105" style="fill: rgb(255, 123, 157);"></circle><circle r="4" cx="855" cy="1635" style="fill: rgb(255, 123, 157);"></circle><circle r="4" cx="855" cy="1685" style="fill: rgb(255, 123, 157);"></circle><circle r="4" cx="865" cy="1075" style="fill: rgb(255, 123, 157);"></circle><circle r="4" cx="865" cy="1655" style="fill: rgb(255, 123, 157);"></circle><circle r="4" cx="875" cy="1035" style="fill: rgb(255, 123, 157);"></circle><circle r="4" cx="875" cy="1065" style="fill: rgb(255, 123, 157);"></circle><circle r="4" cx="875" cy="1115" style="fill: rgb(255, 123, 157);"></circle><circle r="4" cx="875" cy="1645" style="fill: rgb(255, 123, 157);"></circle><circle r="4" cx="875" cy="1685" style="fill: rgb(255, 123, 157);"></circle><circle r="4" cx="885" cy="1065" style="fill: rgb(255, 123, 157);"></circle><circle r="4" cx="885" cy="1095" style="fill: rgb(255, 123, 157);"></circle><circle r="4" cx="895" cy="1675" style="fill: rgb(255, 123, 157);"></circle><circle r="4" cx="905" cy="1015" style="fill: rgb(255, 123, 157);"></circle><circle r="4" cx="905" cy="1045" style="fill: rgb(255, 123, 157);"></circle><circle r="4" cx="905" cy="1075" style="fill: rgb(255, 123, 157);"></circle><circle r="4" cx="905" cy="1125" style="fill: rgb(255, 123, 157);"></circle><circle r="4" cx="905" cy="1665" style="fill: rgb(255, 123, 157);"></circle><circle r="4" cx="905" cy="1685" style="fill: rgb(255, 123, 157);"></circle><circle r="4" cx="915" cy="1045" style="fill: rgb(255, 123, 157);"></circle><circle r="4" cx="915" cy="1095" style="fill: rgb(255, 123, 157);"></circle><circle r="4" cx="915" cy="1705" style="fill: rgb(255, 123, 157);"></circle><circle r="4" cx="935" cy="1075" style="fill: rgb(255, 123, 157);"></circle><circle r="4" cx="935" cy="1105" style="fill: rgb(255, 123, 157);"></circle><circle r="4" cx="935" cy="1665" style="fill: rgb(255, 123, 157);"></circle><circle r="4" cx="945" cy="1015" style="fill: rgb(255, 123, 157);"></circle><circle r="4" cx="945" cy="1045" style="fill: rgb(255, 123, 157);"></circle><circle r="4" cx="945" cy="1645" style="fill: rgb(255, 123, 157);"></circle><circle r="4" cx="945" cy="1675" style="fill: rgb(255, 123, 157);"></circle><circle r="4" cx="1015" cy="1525" style="fill: rgb(86, 195, 0);"></circle><circle r="4" cx="1065" cy="1065" style="fill: rgb(255, 123, 157);"></circle><circle r="4" cx="1085" cy="1085" style="fill: rgb(255, 123, 157);"></circle><circle r="4" cx="1085" cy="1105" style="fill: rgb(255, 123, 157);"></circle><circle r="4" cx="1095" cy="1045" style="fill: rgb(255, 123, 157);"></circle><circle r="4" cx="1095" cy="1055" style="fill: rgb(86, 195, 0);"></circle><circle r="4" cx="1095" cy="1075" style="fill: rgb(255, 123, 157);"></circle><circle r="4" cx="1095" cy="1105" style="fill: rgb(255, 123, 157);"></circle><circle r="4" cx="1115" cy="1035" style="fill: rgb(255, 123, 157);"></circle><circle r="4" cx="1115" cy="1405" style="fill: rgb(255, 123, 157);"></circle><circle r="4" cx="1125" cy="1015" style="fill: rgb(255, 123, 157);"></circle><circle r="4" cx="1125" cy="1065" style="fill: rgb(255, 123, 157);"></circle><circle r="4" cx="1125" cy="1085" style="fill: rgb(255, 123, 157);"></circle><circle r="4" cx="1125" cy="1195" style="fill: rgb(0, 182, 255);"></circle><circle r="4" cx="1125" cy="1385" style="fill: rgb(255, 123, 157);"></circle><circle r="4" cx="1125" cy="1425" style="fill: rgb(255, 123, 157);"></circle><circle r="4" cx="1135" cy="1115" style="fill: rgb(255, 123, 157);"></circle><circle r="4" cx="1135" cy="1435" style="fill: rgb(255, 123, 157);"></circle><circle r="4" cx="1145" cy="995" style="fill: rgb(255, 123, 157);"></circle><circle r="4" cx="1145" cy="1005" style="fill: rgb(255, 123, 157);"></circle><circle r="4" cx="1145" cy="1055" style="fill: rgb(255, 123, 157);"></circle><circle r="4" cx="1145" cy="1125" style="fill: rgb(255, 123, 157);"></circle><circle r="4" cx="1145" cy="1165" style="fill: rgb(255, 123, 157);"></circle><circle r="4" cx="1145" cy="1275" style="fill: rgb(255, 123, 157);"></circle><circle r="4" cx="1145" cy="1375" style="fill: rgb(255, 123, 157);"></circle><circle r="4" cx="1155" cy="1075" style="fill: rgb(255, 123, 157);"></circle><circle r="4" cx="1155" cy="1215" style="fill: rgb(255, 123, 157);"></circle><circle r="4" cx="1155" cy="1245" style="fill: rgb(255, 123, 157);"></circle><circle r="4" cx="1155" cy="1315" style="fill: rgb(255, 123, 157);"></circle><circle r="4" cx="1155" cy="1365" style="fill: rgb(255, 123, 157);"></circle><circle r="4" cx="1155" cy="1385" style="fill: rgb(255, 123, 157);"></circle><circle r="4" cx="1155" cy="1415" style="fill: rgb(255, 123, 157);"></circle><circle r="4" cx="1165" cy="355" style="fill: rgb(255, 123, 157);"></circle><circle r="4" cx="1165" cy="375" style="fill: rgb(255, 123, 157);"></circle><circle r="4" cx="1165" cy="965" style="fill: rgb(255, 123, 157);"></circle><circle r="4" cx="1165" cy="1045" style="fill: rgb(255, 123, 157);"></circle><circle r="4" cx="1165" cy="1065" style="fill: rgb(255, 123, 157);"></circle><circle r="4" cx="1165" cy="1095" style="fill: rgb(255, 123, 157);"></circle><circle r="4" cx="1165" cy="1145" style="fill: rgb(255, 123, 157);"></circle><circle r="4" cx="1165" cy="1175" style="fill: rgb(255, 123, 157);"></circle><circle r="4" cx="1165" cy="1225" style="fill: rgb(255, 123, 157);"></circle><circle r="4" cx="1165" cy="1245" style="fill: rgb(255, 123, 157);"></circle><circle r="4" cx="1165" cy="1315" style="fill: rgb(255, 123, 157);"></circle><circle r="4" cx="1165" cy="1435" style="fill: rgb(255, 123, 157);"></circle><circle r="4" cx="1175" cy="1195" style="fill: rgb(255, 123, 157);"></circle><circle r="4" cx="1175" cy="1285" style="fill: rgb(255, 123, 157);"></circle><circle r="4" cx="1175" cy="1345" style="fill: rgb(255, 123, 157);"></circle><circle r="4" cx="1175" cy="1385" style="fill: rgb(255, 123, 157);"></circle><circle r="4" cx="1175" cy="1425" style="fill: rgb(255, 123, 157);"></circle><circle r="4" cx="1185" cy="345" style="fill: rgb(255, 123, 157);"></circle><circle r="4" cx="1185" cy="935" style="fill: rgb(255, 123, 157);"></circle><circle r="4" cx="1185" cy="955" style="fill: rgb(255, 123, 157);"></circle><circle r="4" cx="1185" cy="1015" style="fill: rgb(255, 123, 157);"></circle><circle r="4" cx="1185" cy="1405" style="fill: rgb(255, 123, 157);"></circle><circle r="4" cx="1195" cy="385" style="fill: rgb(255, 123, 157);"></circle><circle r="4" cx="1195" cy="645" style="fill: rgb(255, 123, 157);"></circle><circle r="4" cx="1195" cy="785" style="fill: rgb(255, 123, 157);"></circle><circle r="4" cx="1195" cy="795" style="fill: rgb(255, 123, 157);"></circle><circle r="4" cx="1195" cy="805" style="fill: rgb(255, 123, 157);"></circle><circle r="4" cx="1195" cy="875" style="fill: rgb(255, 123, 157);"></circle><circle r="4" cx="1195" cy="915" style="fill: rgb(255, 123, 157);"></circle><circle r="4" cx="1195" cy="965" style="fill: rgb(255, 123, 157);"></circle><circle r="4" cx="1195" cy="1075" style="fill: rgb(255, 123, 157);"></circle><circle r="4" cx="1195" cy="1125" style="fill: rgb(86, 195, 0);"></circle><circle r="4" cx="1195" cy="1135" style="fill: rgb(255, 123, 157);"></circle><circle r="4" cx="1195" cy="1185" style="fill: rgb(255, 123, 157);"></circle><circle r="4" cx="1205" cy="295" style="fill: rgb(255, 123, 157);"></circle><circle r="4" cx="1205" cy="315" style="fill: rgb(255, 123, 157);"></circle><circle r="4" cx="1205" cy="405" style="fill: rgb(255, 123, 157);"></circle><circle r="4" cx="1205" cy="545" style="fill: rgb(86, 195, 0);"></circle><circle r="4" cx="1205" cy="655" style="fill: rgb(255, 123, 157);"></circle><circle r="4" cx="1205" cy="665" style="fill: rgb(255, 123, 157);"></circle><circle r="4" cx="1205" cy="715" style="fill: rgb(255, 123, 157);"></circle><circle r="4" cx="1205" cy="735" style="fill: rgb(255, 123, 157);"></circle><circle r="4" cx="1205" cy="745" style="fill: rgb(255, 123, 157);"></circle><circle r="4" cx="1205" cy="765" style="fill: rgb(255, 123, 157);"></circle><circle r="4" cx="1205" cy="815" style="fill: rgb(255, 123, 157);"></circle><circle r="4" cx="1205" cy="845" style="fill: rgb(255, 123, 157);"></circle><circle r="4" cx="1205" cy="915" style="fill: rgb(255, 123, 157);"></circle><circle r="4" cx="1205" cy="1005" style="fill: rgb(255, 123, 157);"></circle><circle r="4" cx="1205" cy="1015" style="fill: rgb(86, 195, 0);"></circle><circle r="4" cx="1205" cy="1135" style="fill: rgb(255, 123, 157);"></circle><circle r="4" cx="1205" cy="1145" style="fill: rgb(255, 123, 157);"></circle><circle r="4" cx="1205" cy="1205" style="fill: rgb(255, 123, 157);"></circle><circle r="4" cx="1205" cy="1235" style="fill: rgb(255, 123, 157);"></circle><circle r="4" cx="1205" cy="1265" style="fill: rgb(255, 123, 157);"></circle><circle r="4" cx="1215" cy="355" style="fill: rgb(255, 123, 157);"></circle><circle r="4" cx="1215" cy="695" style="fill: rgb(255, 123, 157);"></circle><circle r="4" cx="1215" cy="1025" style="fill: rgb(255, 123, 157);"></circle><circle r="4" cx="1215" cy="1035" style="fill: rgb(255, 123, 157);"></circle><circle r="4" cx="1215" cy="1065" style="fill: rgb(255, 123, 157);"></circle><circle r="4" cx="1215" cy="1105" style="fill: rgb(255, 123, 157);"></circle><circle r="4" cx="1225" cy="355" style="fill: rgb(255, 123, 157);"></circle><circle r="4" cx="1225" cy="1045" style="fill: rgb(255, 123, 157);"></circle><circle r="4" cx="1225" cy="1065" style="fill: rgb(255, 123, 157);"></circle><circle r="4" cx="1235" cy="725" style="fill: rgb(255, 123, 157);"></circle><circle r="4" cx="1235" cy="1125" style="fill: rgb(255, 123, 157);"></circle><circle r="4" cx="1245" cy="1065" style="fill: rgb(255, 123, 157);"></circle><circle r="4" cx="1255" cy="1025" style="fill: rgb(255, 123, 157);"></circle><circle r="4" cx="1255" cy="1075" style="fill: rgb(255, 123, 157);"></circle><circle r="4" cx="1255" cy="1095" style="fill: rgb(255, 123, 157);"></circle><circle r="4" cx="1255" cy="1105" style="fill: rgb(255, 123, 157);"></circle><circle r="4" cx="1265" cy="1045" style="fill: rgb(255, 123, 157);"></circle><circle r="4" cx="1275" cy="1055" style="fill: rgb(255, 123, 157);"></circle><circle r="4" cx="1275" cy="1065" style="fill: rgb(86, 195, 0);"></circle><circle r="4" cx="1295" cy="1035" style="fill: rgb(255, 123, 157);"></circle><circle r="4" cx="1295" cy="1085" style="fill: rgb(255, 123, 157);"></circle><circle r="4" cx="1325" cy="1035" style="fill: rgb(255, 123, 157);"></circle><circle r="4" cx="1325" cy="1045" style="fill: rgb(255, 123, 157);"></circle><circle r="4" cx="1355" cy="1035" style="fill: rgb(255, 123, 157);"></circle><circle r="4" cx="1375" cy="1035" style="fill: rgb(255, 123, 157);"></circle><circle r="4" cx="1385" cy="1035" style="fill: rgb(255, 123, 157);"></circle><circle r="4" cx="1405" cy="1035" style="fill: rgb(255, 123, 157);"></circle><circle r="4" cx="1435" cy="1035" style="fill: rgb(255, 123, 157);"></circle><circle r="4" cx="1445" cy="1015" style="fill: rgb(255, 123, 157);"></circle></svg>
